PathFileType	4	(X/Y/Z)	/Users/itak/Documents/Research/Walk-IL/dataset/trc/00244_00009.trc
DataRate	CameraRate	NumFrames	NumMarkers	Units	OrigDataRate	OrigDataStartFrame	OrigNumFrames
100.000000	100.000000	4	53	mm	100.000000	321	858
Frame#	Time	RPSI			LPSI			L3			STRN			T10			C7			CLAV			RBAK			LBAK			LSHO			LUPA			LAEL			LAOL			LWTS			LWPS			LFRA			LIFD			LHPS			LHTS			RSHO			RUPA			RAEL			RAOL			RWTS			RWPS			RFRA			RIFD			RHTS			RHPS			RBHD			LFHD			RFHD			LBHD			LHIP			RHIP			RASI			LASI			LKNE			LTHI			LANK			LTIP			LTOE			LMT1			LMT5			LHEE			RKNE			RTHI			RANK			RTIP			RTOE			RMT1			RMT5			RHEE			
		X1	Y1	Z1	X2	Y2	Z2	X3	Y3	Z3	X4	Y4	Z4	X5	Y5	Z5	X6	Y6	Z6	X7	Y7	Z7	X8	Y8	Z8	X9	Y9	Z9	X10	Y10	Z10	X11	Y11	Z11	X12	Y12	Z12	X13	Y13	Z13	X14	Y14	Z14	X15	Y15	Z15	X16	Y16	Z16	X17	Y17	Z17	X18	Y18	Z18	X19	Y19	Z19	X20	Y20	Z20	X21	Y21	Z21	X22	Y22	Z22	X23	Y23	Z23	X24	Y24	Z24	X25	Y25	Z25	X26	Y26	Z26	X27	Y27	Z27	X28	Y28	Z28	X29	Y29	Z29	X30	Y30	Z30	X31	Y31	Z31	X32	Y32	Z32	X33	Y33	Z33	X34	Y34	Z34	X35	Y35	Z35	X36	Y36	Z36	X37	Y37	Z37	X38	Y38	Z38	X39	Y39	Z39	X40	Y40	Z40	X41	Y41	Z41	X42	Y42	Z42	X43	Y43	Z43	X44	Y44	Z44	X45	Y45	Z45	X46	Y46	Z46	X47	Y47	Z47	X48	Y48	Z48	X49	Y49	Z49	X50	Y50	Z50	X51	Y51	Z51	X52	Y52	Z52	X53	Y53	Z53	

322	3.21	-326.2005310058594	1026.391967773438	426.9295654296875	-437.1150817871094	1034.37890625	472.4757995605469	-386.8958740234375	1119.51806640625	460.1072082519531	-483.3753967285156	1302.869995117188	226.3213043212891	-372.01171875	1245.308959960938	454.9957580566406	-388.1092529296875	1506.320678710938	391.2637939453125	-464.3975830078125	1420.746337890625	244.7357177734375	-294.0458679199219	1364.27685546875	432.2237854003906	-480.4090881347656	1475.350708007812	457.8551330566406	-571.1709594726562	1480.451538085938	402.5098266601562	-629.9541015625	1369.70703125	477.4292297363281	-658.9183959960938	1162.887817382812	510.1053466796875	-581.3870849609375	1152.5107421875	548.7269897460938	-655.0326538085938	915.1156005859375	438.9109802246094	-710.2759399414062	908.4873657226562	502.7622680664062	-682.7848510742188	1055.241943359375	513.5806884765625	-665.3298950195312	721.7674560546875	471.6394653320312	-716.1640014648438	818.950439453125	501.0127563476562	-692.0455932617188	812.49951171875	436.8531188964844	-264.6284484863281	1455.87744140625	265.7145385742188	-198.5317993164062	1388.242553710938	255.3296356201172	-164.2505798339844	1106.293090820312	262.594970703125	-228.8010406494141	1102.295043945312	332.3507690429688	-280.9603576660156	908.6198120117188	149.8249816894531	-201.2641296386719	884.89697265625	167.6083068847656	-169.1651763916016	1039.023559570312	231.3058471679688	-313.0785827636719	729.3442993164062	118.1351013183594	-293.3469543457031	799.4231567382812	88.12968444824219	-226.52783203125	787.8514404296875	114.5183715820312	-361.921875	1655.246704101562	340.9263000488281	-495.571044921875	1705.430419921875	163.9586639404297	-398.4181823730469	1694.920288085938	142.2467041015625	-499.9606323242188	1674.343017578125	326.4762878417969	-608.1205444335938	981.9981079101562	428.0023193359375	-266.0067749023438	984.683349609375	295.6055603027344	-335.4047241210938	1031.008056640625	220.1772155761719	-598.0187377929688	1026.789916992188	318.2024841308594	-678.2417602539062	514.8657836914062	289.2420043945312	-674.3621215820312	655.715087890625	327.9230041503906	-564.8598022460938	155.3462219238281	604.0550537109375	-633.1539306640625	350.6071166992188	441.1663513183594	-641.670654296875	57.93061828613281	429.4409484863281	-568.3031616210938	76.37390899658203	450.5506896972656	-646.4630737304688	91.03978729248047	534.0816650390625	-492.9094543457031	188.5079498291016	609.9270629882812	-396.912353515625	502.4749145507812	253.5446319580078	-311.8807983398438	762.6156005859375	230.6312255859375	-455.77294921875	36.8221321105957	376.9520263671875	-433.2748718261719	383.7650451660156	260.7637634277344	-551.5120849609375	43.04393768310547	181.4280242919922	-578.229736328125	38.96002578735352	247.8179321289062	-460.0273742675781	40.30645370483398	264.2063293457031	-497.6051330566406	34.78126907348633	450.9640808105469	
323	3.22	-328.9950256347656	1026.759521484375	423.81884765625	-440.4789123535156	1034.857055664062	468.0579528808594	-389.5932312011719	1119.952392578125	455.8796691894531	-483.7646484375	1303.165649414062	220.9821929931641	-374.1909790039062	1245.658081054688	450.7032775878906	-389.6703186035156	1506.69921875	386.640869140625	-464.8810424804688	1421.010498046875	239.5231018066406	-295.99609375	1364.618286132812	428.3622131347656	-482.4975891113281	1475.697998046875	452.4550476074219	-572.7210083007812	1480.778442382812	396.53369140625	-632.0833740234375	1370.073608398438	471.0529174804688	-661.45654296875	1163.29931640625	503.7992553710938	-584.0206909179688	1152.952880859375	542.8052368164062	-657.640625	915.1939086914062	433.9237976074219	-713.1137084960938	909.0353393554688	497.6230163574219	-685.3958129882812	1055.787231445312	507.7611694335938	-668.3208618164062	722.0783081054688	467.8186340332031	-719.0523071289062	819.4649047851562	496.4361572265625	-694.7028198242188	812.5087280273438	432.346435546875	-265.2047729492188	1456.129760742188	262.0391540527344	-199.0482635498047	1388.469848632812	252.136474609375	-165.2956085205078	1106.338012695312	259.4248657226562	-230.2552490234375	1102.425048828125	328.8139953613281	-283.0255737304688	910.3450317382812	144.8061370849609	-203.6917724609375	885.7018432617188	162.9448852539062	-170.5174255371094	1039.167724609375	227.7584075927734	-316.8316650390625	731.8163452148438	111.7168807983398	-296.0716857910156	801.772705078125	82.20563507080078	-229.528564453125	789.2904052734375	108.9639282226562	-363.2673645019531	1655.513549804688	336.5492858886719	-495.1253662109375	1705.702514648438	158.2331390380859	-397.7921142578125	1695.187255859375	137.5181579589844	-501.2017211914062	1674.609741210938	320.6541748046875	-610.9747314453125	982.7733154296875	421.3138122558594	-267.4398193359375	984.7346801757812	293.3004455566406	-335.4519653320312	1031.043579101562	216.8795623779297	-599.2018432617188	1027.460083007812	311.7310180664062	-679.3843383789062	516.760986328125	276.6738891601562	-676.1890869140625	657.1138305664062	317.1212768554688	-582.4907836914062	148.2522888183594	586.0792846679688	-641.983154296875	348.5269775390625	426.2419128417969	-656.7210083007812	57.10948181152344	406.7709045410156	-583.525634765625	73.00354766845703	430.6932678222656	-663.5860595703125	87.90283966064453	512.153076171875	-509.8231506347656	179.1898193359375	594.9072265625	-396.6610717773438	502.2253723144531	253.1994781494141	-312.2445983886719	762.3173217773438	229.2483215332031	-455.8529663085938	36.84809875488281	376.9937133789062	-433.1796569824219	383.5857238769531	260.4541625976562	-551.5716552734375	43.00719833374023	181.4535217285156	-578.2770385742188	38.91571426391602	247.8326416015625	-460.0897521972656	40.33988189697266	264.2212219238281	-497.7747497558594	34.72341156005859	450.9810791015625	
324	3.23	-331.8006286621094	1027.104125976562	420.7615051269531	-443.8672180175781	1035.338989257812	463.624755859375	-392.3317565917969	1120.364990234375	451.6509399414062	-484.0964965820312	1303.416381835938	215.6414184570312	-376.4312133789062	1245.995361328125	446.4280395507812	-391.2499084472656	1507.053833007812	382.0219116210938	-465.347900390625	1421.234375	234.2859649658203	-297.9665832519531	1364.935668945312	424.5554809570312	-484.6064147949219	1476.016235351562	447.0291442871094	-574.2656860351562	1481.066772460938	390.5081481933594	-634.2479858398438	1370.423095703125	464.6026611328125	-664.0836181640625	1163.708862304688	497.4000244140625	-586.7791137695312	1153.379516601562	536.8814697265625	-660.2035522460938	915.298583984375	428.7286071777344	-715.99267578125	909.5674438476562	492.1927185058594	-688.0872192382812	1056.304809570312	501.7696838378906	-671.3602905273438	722.444580078125	463.5916748046875	-721.969970703125	819.9720458984375	491.4741516113281	-697.29052734375	812.5443115234375	427.5223693847656	-265.76171875	1456.337646484375	258.4216613769531	-199.5404357910156	1388.666870117188	249.0261993408203	-166.2628173828125	1106.359985351562	256.3406372070312	-231.5804595947266	1102.525268554688	325.3825988769531	-284.9605712890625	912.0143432617188	139.9419250488281	-206.0002136230469	886.4771118164062	158.4014739990234	-171.7604064941406	1039.285278320312	224.3081359863281	-320.371337890625	734.2159423828125	105.5300445556641	-298.6630859375	804.0623168945312	76.47905731201172	-232.3941955566406	790.67041015625	103.5844268798828	-364.583984375	1655.70703125	332.2406921386719	-494.5526733398438	1706.007446289062	152.5600891113281	-397.0463562011719	1695.470336914062	132.8707122802734	-502.4034118652344	1674.84619140625	314.8411560058594	-613.8076171875	983.531005859375	414.5745544433594	-268.892822265625	984.7669067382812	291.0432739257812	-335.4655151367188	1031.050903320312	213.6746063232422	-600.3450927734375	1028.078979492188	305.239013671875	-680.1217041015625	518.5621337890625	264.3644409179688	-677.6731567382812	658.4384155273438	306.5231628417969	-599.5820922851562	141.0022735595703	567.1524658203125	-650.3952026367188	346.253662109375	411.0259704589844	-670.6594848632812	56.53336334228516	383.1036376953125	-597.802001953125	69.82715606689453	409.8782653808594	-679.8499755859375	84.83980560302734	489.0723266601562	-526.3944091796875	169.7072601318359	579.0301513671875	-396.3665771484375	501.9765319824219	252.8619689941406	-312.5731201171875	762.0103759765625	227.9696655273438	-455.9239196777344	36.87281799316406	377.0395202636719	-433.0494689941406	383.4049377441406	260.1360473632812	-551.624267578125	42.97144317626953	181.4793090820312	-578.3118896484375	38.87629318237305	247.8488006591797	-460.12939453125	40.36190414428711	264.2373657226562	-497.9058532714844	34.6875114440918	451.0105895996094	
325	3.24	-334.6243896484375	1027.424438476562	417.7491149902344	-447.27001953125	1035.824951171875	459.17333984375	-395.1224975585938	1120.764282226562	447.4254150390625	-484.3592834472656	1303.627319335938	210.2999877929688	-378.7325439453125	1246.32470703125	442.1717224121094	-392.8579406738281	1507.38232421875	377.3928527832031	-465.7853698730469	1421.42822265625	229.0260162353516	-299.9549865722656	1365.23486328125	420.80126953125	-486.7254333496094	1476.30712890625	441.5771484375	-575.8182983398438	1481.3251953125	384.4171752929688	-636.4546508789062	1370.764404296875	458.0722961425781	-666.763671875	1164.123046875	490.9202575683594	-589.650146484375	1153.800903320312	530.9396362304688	-662.7232666015625	915.4366455078125	423.3153686523438	-718.9043579101562	910.087158203125	486.4746704101562	-690.8489990234375	1056.80224609375	495.6034240722656	-674.4232177734375	722.8495483398438	458.9562683105469	-724.9267578125	820.478515625	486.13623046875	-699.7914428710938	812.6123046875	422.3947143554688	-266.3030090332031	1456.509521484375	254.8624572753906	-200.0169372558594	1388.840576171875	245.9962921142578	-167.1655883789062	1106.367553710938	253.3352508544922	-232.7937927246094	1102.602172851562	322.0506286621094	-286.7576904296875	913.6106567382812	135.2368621826172	-208.173095703125	887.2215576171875	153.9853057861328	-172.9063262939453	1039.385009765625	220.9505157470703	-323.6503601074219	736.5128784179688	99.60861968994141	-301.1075744628906	806.2653198242188	70.96324920654297	-235.1095733642578	791.9783325195312	98.39533233642578	-365.8815002441406	1655.834106445312	327.9949340820312	-493.8544616699219	1706.3466796875	146.9352874755859	-396.1778259277344	1695.770751953125	128.3027648925781	-503.5619812011719	1675.056640625	309.0350952148438	-616.6213989257812	984.2747802734375	407.7686767578125	-270.2651672363281	984.7896118164062	288.8768310546875	-335.4375	1031.041015625	210.5578308105469	-601.4420776367188	1028.6533203125	298.7135009765625	-680.5239868164062	520.2764282226562	252.3346405029297	-678.8758544921875	659.6976318359375	296.1392517089844	-615.9622192382812	133.7039337158203	547.2782592773438	-658.32666015625	343.85205078125	395.5467529296875	-683.3112182617188	56.22623062133789	358.5797729492188	-610.9730834960938	66.91259765625	388.18115234375	-695.0819091796875	81.89611053466797	464.9739379882812	-542.4647216796875	160.1963806152344	562.270751953125	-396.0465087890625	501.7303771972656	252.5151062011719	-312.8781127929688	761.7009887695312	226.7636871337891	-455.9833068847656	36.8978157043457	377.089599609375	-432.8960876464844	383.2217407226562	259.7940979003906	-551.668701171875	42.93766403198242	181.5044555664062	-578.3348388671875	38.84524917602539	247.8644561767578	-460.1441650390625	40.37003326416016	264.2543029785156	-497.9803161621094	34.68616104125977	451.0509338378906	
